<?xml version="1.0" encoding="utf-8"?>
<!-- Generator: Adobe Illustrator 23.0.4, SVG Export Plug-In . SVG Version: 6.00 Build 0)  -->
<svg version="1.1" id="Layer_1" xmlns="http://www.w3.org/2000/svg" xmlns:xlink="http://www.w3.org/1999/xlink" x="0px" y="0px"
	 viewBox="0 0 427.86 377.18" style="enable-background:new 0 0 427.86 377.18;" xml:space="preserve">
<style type="text/css">
	.st0{fill:#FFFFFF;}
</style>
<g>
	<path class="st0" d="M202.83,117.44c-2.5,0-4.46,0-6.41,0c-25.83,0-51.67-0.08-77.5,0.06c-4.8,0.03-9.68,0.51-14.38,1.47
		c-32.63,6.62-56.1,35.59-56.02,69.19c0.01,3.64-1.09,4.72-4.54,6.02c-7.09,2.68-14.5,5.57-20.38,10.16
		C4.32,219.4-3.53,239.67,1.47,263.63c4.96,23.73,20.3,38.76,43.46,45.64c2.61,0.78,3.89,1.44,4.12,4.41
		c2.06,26.86,21.94,51.41,47.66,59.86c14.84,4.87,30.04,3.36,45.13,3.47c33.16,0.23,66.32,0.06,99.47,0.03
		c24.16-0.03,48.34,0.5,72.48-0.29c33.04-1.09,62.17-29.1,65.1-61.68c0.31-3.49,1.27-5.01,4.85-6.06
		c25.93-7.6,43.62-29.86,44.12-54.99c0.58-29-16.33-51.93-44.54-60.15c-2.67-0.78-3.62-1.78-3.79-4.68
		c-0.36-6.12-0.76-12.35-2.25-18.26c-8.03-31.99-35.73-53.42-68.69-53.48c-25.83-0.04-51.67-0.01-77.5-0.01c-1.91,0-3.81,0-5.92,0
		c0-9.37,0.11-17.87-0.06-26.36c-0.06-2.77,0.75-3.94,3.46-4.96c22.2-8.39,33.48-29.44,28.37-52.44
		c-5.04-22.67-28.87-37.66-52.05-32.74c-23.42,4.97-39.23,28.54-34.41,51.42c3.38,16.05,12.77,27.09,27.9,33.41
		c1.72,0.72,4.23,2.43,4.28,3.77C203.02,98.63,202.83,107.76,202.83,117.44z"/>
	<path d="M202.83,117.44c0-9.68,0.18-18.81-0.2-27.91c-0.06-1.34-2.57-3.05-4.28-3.77c-15.13-6.32-24.52-17.36-27.9-33.41
		c-4.81-22.88,10.99-46.45,34.41-51.42c23.18-4.92,47.01,10.07,52.05,32.74c5.12,23.01-6.17,44.06-28.37,52.44
		c-2.71,1.02-3.52,2.19-3.46,4.96c0.18,8.49,0.06,16.98,0.06,26.36c2.1,0,4.01,0,5.92,0c25.83,0,51.67-0.03,77.5,0.01
		c32.96,0.06,60.66,21.49,68.69,53.48c1.48,5.91,1.89,12.14,2.25,18.26c0.17,2.91,1.12,3.91,3.79,4.68
		c28.21,8.22,45.12,31.15,44.54,60.15c-0.5,25.13-18.19,47.39-44.12,54.99c-3.58,1.05-4.54,2.57-4.85,6.06
		c-2.93,32.58-32.06,60.59-65.1,61.68c-24.14,0.8-48.32,0.27-72.48,0.29c-33.16,0.03-66.32,0.21-99.47-0.03
		c-15.09-0.11-30.29,1.41-45.13-3.47c-25.72-8.45-45.6-33-47.66-59.86c-0.23-2.97-1.5-3.63-4.12-4.41
		c-23.16-6.88-38.5-21.9-43.46-45.64c-5-23.96,2.85-44.23,22.13-59.29c5.88-4.59,13.3-7.48,20.38-10.16
		c3.45-1.3,4.55-2.39,4.54-6.02c-0.08-33.59,23.39-62.56,56.02-69.19c4.7-0.95,9.58-1.44,14.38-1.47
		c25.83-0.14,51.67-0.06,77.5-0.06C198.38,117.44,200.34,117.44,202.83,117.44z M213.97,354.54c0-0.01,0-0.01,0-0.02
		c31.83,0,63.65,0.06,95.48-0.02c24.74-0.07,46.58-20.06,46.99-44.65c0.69-41.31,0.37-82.64,0.1-123.96
		c-0.04-5.51-1.36-11.39-3.59-16.44c-8.68-19.71-24.48-29.32-45.75-29.56c-26.99-0.31-53.98-0.11-80.97-0.09
		c-35.65,0.03-71.31-0.13-106.96,0.22c-26.78,0.27-47.54,20.02-47.9,46.33c-0.56,40.48-0.58,80.99-0.01,121.47
		c0.38,26.86,21.74,46.7,48.62,46.72C151.32,354.55,182.65,354.54,213.97,354.54z M213.73,65.74c12.45,0.02,21.88-9.29,21.91-21.63
		c0.02-11.5-9.74-21.45-21.15-21.56c-12.39-0.12-22.18,9.66-22.16,22.12C192.34,56.31,201.91,65.72,213.73,65.74z M48.47,216.53
		c-16.16,4.41-27.35,21.72-25.6,38.79c1.48,14.45,14.19,29.77,25.37,30.32c0.08-0.79,0.22-1.6,0.22-2.41
		C48.48,261.17,48.47,239.09,48.47,216.53z M379.9,286.02c14-3.03,25.17-18.38,25.22-34.19c0.05-16.47-10.99-31.89-25.22-35
		C379.9,239.89,379.9,262.92,379.9,286.02z"/>
	<path class="st0" d="M213.97,354.54c-31.33,0-62.65,0.01-93.98,0c-26.89-0.01-48.24-19.86-48.62-46.72
		c-0.57-40.48-0.55-80.99,0.01-121.47c0.36-26.31,21.13-46.06,47.9-46.33c35.65-0.36,71.31-0.2,106.96-0.22
		c26.99-0.02,53.98-0.22,80.97,0.09c21.27,0.24,37.07,9.85,45.75,29.56c2.22,5.05,3.55,10.93,3.59,16.44
		c0.27,41.32,0.58,82.65-0.1,123.96c-0.41,24.59-22.26,44.59-46.99,44.65c-31.83,0.08-63.65,0.02-95.48,0.02
		C213.97,354.53,213.97,354.53,213.97,354.54z M330.13,222.58c0.03-18.83-14.57-33.51-33.5-33.68
		c-17.77-0.16-32.99,15.1-33.08,33.15c-0.09,18.76,14.87,33.97,33.31,33.87C315.43,255.81,330.1,241.11,330.13,222.58z
		 M164.31,222.43c0.01-18.87-14.65-33.49-33.56-33.45c-18.01,0.03-32.88,15.04-32.92,33.22c-0.04,18.6,14.57,33.56,32.91,33.72
		C149.5,256.08,164.31,241.31,164.31,222.43z M214.53,291.35c0,0.02,0,0.05,0,0.07c-10.14,0-20.28-0.13-30.42,0.04
		c-7.52,0.13-12.14,4.45-12.22,10.93c-0.09,6.88,4.45,11.53,12.15,11.59c19.95,0.17,39.9,0.18,59.85,0.01
		c7.6-0.06,12.29-4.83,12.2-11.6c-0.09-6.78-4.81-10.98-12.63-11.04C233.82,291.29,224.17,291.35,214.53,291.35z"/>
	<path class="st0" d="M213.73,65.74c-11.82-0.02-21.39-9.43-21.4-21.06c-0.02-12.47,9.77-22.24,22.16-22.12
		c11.41,0.11,21.17,10.06,21.15,21.56C235.61,56.44,226.18,65.76,213.73,65.74z"/>
	<path class="st0" d="M48.47,216.53c0,22.56,0,44.63-0.01,66.71c0,0.81-0.14,1.61-0.22,2.41c-11.18-0.55-23.89-15.88-25.37-30.32
		C21.13,238.25,32.31,220.95,48.47,216.53z"/>
	<path class="st0" d="M379.9,286.02c0-23.11,0-46.13,0-69.19c14.23,3.11,25.27,18.54,25.22,35
		C405.06,267.65,393.89,282.99,379.9,286.02z"/>
	<path d="M330.13,222.58c-0.03,18.53-14.7,33.23-33.27,33.34c-18.44,0.1-33.4-15.11-33.31-33.87c0.09-18.05,15.32-33.31,33.08-33.15
		C315.56,189.07,330.16,203.74,330.13,222.58z M296.61,211.68c-5.96,0.09-10.69,5.02-10.55,11.01c0.13,5.8,5.42,10.89,11.07,10.64
		c5.75-0.25,10.89-5.59,10.74-11.15C307.71,216.44,302.5,211.59,296.61,211.68z"/>
	<path d="M164.31,222.43c-0.01,18.87-14.82,33.65-33.56,33.49c-18.34-0.16-32.95-15.12-32.91-33.72
		c0.04-18.18,14.91-33.18,32.92-33.22C149.66,188.94,164.32,203.56,164.31,222.43z M131.19,211.69
		c-5.97-0.06-10.94,4.78-10.94,10.65c0,5.86,4.99,10.89,10.8,10.9c5.88,0,10.82-4.88,10.88-10.76
		C142,216.57,137.2,211.75,131.19,211.69z"/>
	<path d="M214.53,291.35c9.64,0,19.29-0.05,28.93,0.02c7.82,0.06,12.54,4.25,12.63,11.04c0.09,6.77-4.6,11.54-12.2,11.6
		c-19.95,0.16-31.61,0.18-51.56,0c-7.69-0.07-20.53-12.73-20.44-19.61c0.08-6.48,4.7-10.8,12.22-10.93
		c10.14-0.17,8.22,11.09,30.42,7.96C214.53,291.4,214.53,291.37,214.53,291.35z"/>
	<path class="st0" d="M296.61,211.68c5.9-0.09,11.1,4.77,11.26,10.49c0.15,5.57-4.98,10.9-10.74,11.15
		c-5.65,0.25-10.94-4.84-11.07-10.64C285.92,216.7,290.65,211.76,296.61,211.68z"/>
	<path class="st0" d="M131.27,203.68c10.47,0.1,18.84,8.51,18.72,18.8c-0.11,10.25-8.72,18.76-18.98,18.76
		c-10.13-0.01-18.82-8.78-18.82-19C112.19,212.02,120.86,203.58,131.27,203.68z"/>
</g>
<path class="st0" d="M297.01,203.68c10.47,0.1,18.84,8.51,18.72,18.8c-0.11,10.25-8.72,18.76-18.98,18.76
	c-10.13-0.01-18.82-8.78-18.82-19C277.94,212.02,286.6,203.58,297.01,203.68z"/>
</svg>
